<?xml version="1.0" standalone="no"?>
<!DOCTYPE svg PUBLIC "-//W3C//DTD SVG 20010904//EN"
 "http://www.w3.org/TR/2001/REC-SVG-20010904/DTD/svg10.dtd">
<svg version="1.0" xmlns="http://www.w3.org/2000/svg"
 width="279.000000pt" height="221.000000pt" viewBox="0 0 279.000000 221.000000"
 preserveAspectRatio="xMidYMid meet">

<g transform="translate(0.000000,221.000000) scale(0.100000,-0.100000)"
fill="#000000" stroke="none">
<path d="M2144 1929 l-192 -192 -78 30 c-236 90 -510 115 -739 68 -270 -56
-594 -217 -850 -423 -102 -82 -214 -192 -232 -225 -19 -37 -19 -127 0 -164 47
-89 372 -345 584 -459 l92 -49 -174 -176 c-138 -139 -175 -181 -175 -202 0
-25 23 -47 51 -47 7 0 99 86 205 191 l192 192 67 -27 c227 -91 507 -118 742
-71 253 51 553 194 803 385 129 98 259 220 280 260 24 48 26 120 4 166 -42 88
-389 359 -601 469 -40 21 -73 41 -73 44 0 3 79 85 175 181 96 96 175 182 175
192 0 21 -27 48 -48 48 -9 0 -103 -86 -208 -191z m-574 -179 c87 -14 289 -70
296 -82 4 -6 -18 -34 -47 -64 l-54 -54 -48 34 c-171 121 -402 134 -601 34 -86
-43 -204 -163 -244 -249 -91 -192 -79 -415 33 -583 l38 -58 -72 -71 -71 -72
-76 39 c-113 58 -326 203 -439 299 -132 112 -146 127 -152 177 -6 42 -5 43 72
116 42 41 127 112 188 158 261 197 496 310 757 365 108 22 313 28 420 11z
m499 -172 c167 -91 285 -173 460 -322 152 -129 154 -166 18 -286 -270 -237
-566 -408 -832 -478 -253 -67 -461 -60 -733 25 l-84 26 57 57 57 58 60 -39
c276 -178 651 -91 816 189 109 187 103 439 -14 613 -19 28 -34 55 -34 60 0 16
123 139 138 139 9 0 49 -19 91 -42z m-489 -30 c131 -63 130 -52 21 -161 l-94
-95 -33 14 c-18 8 -57 14 -86 14 -156 -1 -256 -146 -203 -295 l15 -40 -94 -94
-94 -94 -31 48 c-173 272 -50 615 259 723 54 19 82 22 165 20 91 -3 107 -7
175 -40z m219 -188 c49 -79 74 -164 74 -250 1 -382 -411 -617 -733 -419 -28
17 -50 34 -50 39 0 5 41 49 92 98 l91 90 36 -15 c54 -23 149 -14 199 20 82 54
117 162 84 262 l-13 40 88 93 c48 50 91 92 95 92 3 0 20 -22 37 -50z"/>
</g>
</svg>
