<?xml version="1.0" standalone="no"?>
<!DOCTYPE svg PUBLIC "-//W3C//DTD SVG 20010904//EN"
 "http://www.w3.org/TR/2001/REC-SVG-20010904/DTD/svg10.dtd">
<svg version="1.0" xmlns="http://www.w3.org/2000/svg"
 width="294.000000pt" height="178.000000pt" viewBox="0 0 294.000000 178.000000"
 preserveAspectRatio="xMidYMid meet">

<g transform="translate(0.000000,178.000000) scale(0.100000,-0.100000)"
fill="#000000" stroke="none">
<path d="M1305 1620 c-347 -55 -726 -251 -1045 -541 -106 -96 -130 -133 -130
-203 0 -69 29 -115 127 -203 185 -165 347 -275 563 -381 254 -126 415 -166
660 -166 167 -1 265 14 414 61 99 31 333 137 362 165 12 11 28 21 35 22 77 14
484 339 525 418 20 38 20 128 1 165 -18 33 -130 143 -232 225 -254 204 -574
364 -845 423 -89 19 -350 28 -435 15z m404 -109 c257 -50 500 -166 760 -361
64 -48 152 -122 195 -163 79 -74 79 -75 73 -117 -6 -49 -20 -66 -147 -173
-119 -101 -224 -176 -348 -250 -166 -98 -261 -138 -452 -189 -150 -39 -362
-49 -510 -24 -318 56 -652 234 -972 520 -121 107 -115 144 42 279 313 269 614
425 925 482 110 21 317 18 434 -4z"/>
<path d="M1371 1445 c-294 -55 -503 -344 -463 -641 54 -405 478 -628 844 -443
88 44 205 163 246 250 112 236 71 491 -107 670 -143 143 -326 201 -520 164z
m251 -105 c240 -74 387 -320 337 -562 -58 -281 -365 -458 -631 -364 -343 121
-444 549 -189 804 127 128 314 175 483 122z"/>
<path d="M1379 1067 c-52 -27 -103 -98 -112 -154 -15 -91 32 -188 113 -231 37
-19 56 -23 111 -20 116 6 196 81 206 195 6 66 -8 109 -53 162 -60 71 -179 93
-265 48z"/>
</g>
</svg>
